# xmcd
#
# Track frame offsets: 
#        150
#        9517
#        22295
#        35747
#        48247
#        57747
#        72067
#        84607
#        97775
#        110592
#        120804
#        133740
#        146775
#        158085
#        167710
#        176962
#        189272
#        201770
#
# Disc length: 2803 seconds
#
# Revision: 1
# Processed by: cddbd v1.5.2PL0 Copyright (c) Steve Scherf et al.
# Submitted via: ExactAudioCopy v1.0b1
#
DISCID=fb0af112
DTITLE=Bobby Marchan - There's Something On Your Mind
DYEAR=1960
DGENRE=Soul
TTITLE0=There's Something On Your Mind (Part 1)
TTITLE1=There's Something On Your Mind (Part 2)
TTITLE2=Booty Green
TTITLE3=It Hurts Me To My Heart
TTITLE4=Snoopin' And Accusin'
TTITLE5=All In My Mind
TTITLE6=Things I Used To Do (Part 1)
TTITLE7=Things I Used To Do (Part 2)
TTITLE8=What You Don't Know Don't Hurt You
TTITLE9=This Is The Life
TTITLE10=I Need Someone
TTITLE11=I Miss You So
TTITLE12=Yes, It's Written All Over Your Face
TTITLE13=You're Still My Baby (Part 1)
TTITLE14=You're Still My Baby (Part 2)
TTITLE15=Look At My Heart
TTITLE16=Yes, It's Written All Over Your Face (Part 1)
TTITLE17=Yes, It's Written All Over Your Face (Part 2)
EXTD=
EXTT0=
EXTT1=
EXTT2=
EXTT3=
EXTT4=
EXTT5=
EXTT6=
EXTT7=
EXTT8=
EXTT9=
EXTT10=
EXTT11=
EXTT12=
EXTT13=
EXTT14=
EXTT15=
EXTT16=
EXTT17=
PLAYORDER=
